<?xml version="1.0" encoding="UTF-8"?><svg id="Lager_2" xmlns="http://www.w3.org/2000/svg" xmlns:xlink="http://www.w3.org/1999/xlink" viewBox="0 0 7272.25 1393.79"><defs><style>.cls-1{fill:none;}.cls-2{clip-path:url(#clippath);}.cls-3{fill:#fff;}.cls-4{clip-path:url(#clippath-1);}.cls-5{clip-path:url(#clippath-3);}.cls-6{clip-path:url(#clippath-2);}</style><clipPath id="clippath"><rect class="cls-1" width="7272.25" height="1393.79"/></clipPath><clipPath id="clippath-1"><rect class="cls-1" width="7272.25" height="1393.79"/></clipPath><clipPath id="clippath-2"><rect class="cls-1" width="7272.23" height="1393.79"/></clipPath><clipPath id="clippath-3"><rect class="cls-1" width="7272.25" height="1393.79"/></clipPath></defs><g id="Textplattor_kapra"><g id="Liggande_vit"><g class="cls-2"><g class="cls-4"><path class="cls-3" d="M1669.6,834.5c21.83,33.37,59.73,48.81,96.35,48.81,40.46,0,90.55-25.68,90.55-75.82,0-104.66-224.15-39.81-224.15-217.09,0-53.29,44.95-127.15,154.15-127.15,49.44,0,96.98,10.27,131.02,52.01l-50.1,45.6c-15.41-23.75-45.58-39.81-80.92-39.81-68.09,0-88.64,41.11-88.64,69.35,0,114.97,224.15,46.26,224.15,210.05,0,88-70.64,140.64-158.01,140.64-58.43,0-114.32-19.9-145.16-62.94l50.75-43.65Z"/><path class="cls-3" d="M2130.12,617.39c90.58,0,161.85,71.3,161.85,159.95s-71.27,159.9-161.85,159.9-161.85-71.3-161.85-159.9,71.28-159.95,161.85-159.95m0,265.91c61.66,0,100.2-44.32,100.2-105.96s-38.55-106.01-100.2-106.01-100.19,44.32-100.19,106.01,38.55,105.96,100.19,105.96"/><path class="cls-3" d="M2570.5,706.05c-21.18-22.51-43.67-34.05-75.79-34.05-62.94,0-95.06,50.72-95.06,107.89s38.54,103.41,98.28,103.41c32.1,0,54.59-11.57,73.86-34.05l41.11,41.11c-30.21,33.43-71.3,46.88-115.62,46.88-93.77,0-159.28-64.86-159.28-158.66s64.23-160.58,159.28-160.58c44.32,0,86.71,15.44,116.9,48.17l-43.69,39.86Z"/><path class="cls-3" d="M2721.99,473.53c23.13,0,42.39,19.25,42.39,42.39s-19.27,42.41-42.39,42.41-42.39-19.28-42.39-42.41,19.29-42.39,42.39-42.39m-28.89,151.56h57.8v304.47h-57.8v-304.47Z"/><path class="cls-3" d="M2847.47,662.34c32.1-30.19,78.35-44.95,120.74-44.95,89.92,0,127.17,48.79,127.17,101.48v155.43c0,21.21,.65,39.18,2.56,55.24h-51.37c-1.29-15.43-1.93-30.82-1.93-46.25h-1.28c-25.69,39.18-60.38,53.94-106.62,53.94-56.52,0-105.32-32.12-105.32-91.2,0-78.38,75.14-105.34,167.63-105.34h42.39v-12.83c0-31.5-23.13-64.23-72.58-64.23-44.32,0-65.52,18.6-86.71,34.67l-34.68-35.97Zm163.13,120.77c-54.59,0-121.4,9.61-121.4,58.46,0,34.66,25.72,49.42,65.53,49.42,64.22,0,86.71-47.51,86.71-88.62v-19.27h-30.84Z"/><rect class="cls-3" x="3190.77" y="443.98" width="57.82" height="485.55"/><path class="cls-3" d="M3634.28,929.54h-57.8v-43.69h-1.31c-22.46,32.78-64.85,51.4-105.98,51.4-94.4,0-154.76-70.02-154.76-159.92s61.01-159.95,154.76-159.95c43.69,0,85.44,19.9,105.98,51.4h1.31v-224.8h57.8v485.55Zm-57.8-152.2c0-61.67-38.55-106.01-100.2-106.01s-100.19,44.34-100.19,106.01,38.52,105.96,100.19,105.96,100.2-44.32,100.2-105.96"/><path class="cls-3" d="M3766.68,798.51c0,53.31,49.47,88.64,102.76,88.64,35.33,0,61.04-17.97,83.48-45.57l43.7,33.37c-32.11,41.76-76.45,62.3-134.9,62.3-96.32,0-156.71-69.39-156.71-159.92s66.16-159.93,157.39-159.93c107.26,0,148.35,82.22,148.35,160.56v20.55h-244.08Zm182.42-46.21c-1.28-50.77-29.54-88.65-88-88.65s-94.42,48.17-94.42,88.65h182.42Z"/><path class="cls-3" d="M4075.13,625.08h53.94v47.54h1.28c5.78-17.99,43.04-55.24,97.61-55.24,45,0,75.8,19.29,95.1,56.54,19.9-37.25,59.69-56.54,96.3-56.54,93.79,0,115.62,66.8,115.62,134.92v177.26h-57.8v-169.58c0-46.25-9.64-88.63-65.51-88.63s-77.68,37.89-77.68,91.86v166.35h-57.85v-159.28c0-57.83-8.31-98.92-64.23-98.92-41.73,0-78.99,31.48-78.99,100.19v158.02h-57.78v-304.47Z"/><path class="cls-3" d="M4754.98,617.39c90.58,0,161.85,71.3,161.85,159.95s-71.27,159.9-161.85,159.9-161.83-71.3-161.83-159.9,71.3-159.95,161.83-159.95m0,265.91c61.67,0,100.19-44.32,100.19-105.96s-38.52-106.01-100.19-106.01-100.2,44.32-100.2,106.01,38.57,105.96,100.2,105.96"/><polygon class="cls-3" points="4974.81 443.99 5032.61 443.99 5032.61 757.39 5163.62 625.75 5243.91 625.75 5101.98 763.83 5256.11 929.54 5173.91 929.54 5032.61 771.52 5032.61 929.54 4974.81 929.54 4974.81 443.99"/><path class="cls-3" d="M5310.46,625.08h57.8v46.93h1.3c14.76-32.11,53.31-54.62,91.19-54.62,8.98,0,17.97,1.3,25.72,3.86l-2.59,62.3c-9.61-2.56-19.28-4.47-28.27-4.47-56.47,0-87.34,30.81-87.34,97.6v152.88h-57.8v-304.47Z"/><path class="cls-3" d="M5535.69,662.34c32.1-30.19,78.36-44.95,120.75-44.95,89.9,0,127.16,48.79,127.16,101.48v155.43c0,21.21,.65,39.18,2.56,55.24h-51.33c-1.3-15.43-1.93-30.82-1.93-46.25h-1.28c-25.7,39.18-60.41,53.94-106.67,53.94-56.49,0-105.32-32.12-105.32-91.2,0-78.38,75.14-105.34,167.65-105.34h42.39v-12.83c0-31.5-23.09-64.23-72.58-64.23-44.32,0-65.48,18.6-86.69,34.67l-34.69-35.97Zm163.18,120.77c-54.62,0-121.42,9.61-121.42,58.46,0,34.66,25.7,49.42,65.48,49.42,64.23,0,86.72-47.51,86.72-88.62v-19.27h-30.79Z"/><path class="cls-3" d="M6031.39,675.18h-82.87v138.11c0,34.04,0,70.02,43.7,70.02,13.47,0,29.53-1.93,41.13-8.99v52.65c-13.51,7.73-40.48,10.29-52.03,10.29-89.28,0-90.58-54.57-90.58-103.41v-158.66h-66.76v-50.1h66.76v-85.39h57.78v85.39h82.87v50.1Z"/><path class="cls-3" d="M6138.18,798.51c0,53.31,49.47,88.64,102.75,88.64,35.33,0,61.04-17.97,83.48-45.57l43.72,33.37c-32.12,41.76-76.45,62.3-134.9,62.3-96.35,0-156.72-69.39-156.72-159.92s66.21-159.93,157.4-159.93c107.24,0,148.37,82.22,148.37,160.56v20.55h-244.1Zm182.41-46.21c-1.29-50.77-29.53-88.65-87.99-88.65s-94.42,48.17-94.42,88.65h182.41Z"/><path class="cls-3" d="M6449.8,625.08h57.78v46.93h1.31c14.73-32.11,53.29-54.62,91.18-54.62,8.99,0,17.99,1.3,25.72,3.86l-2.58,62.3c-9.64-2.56-19.28-4.47-28.28-4.47-56.49,0-87.35,30.81-87.35,97.6v152.88h-57.78v-304.47Z"/><path class="cls-3" d="M6682.42,625.08h57.78v46.93h1.29c14.77-32.11,53.33-54.62,100.19-54.62,59.11,0,110.5,35.34,110.5,116.25v195.92h-57.8v-179.86c0-57.15-32.78-78.35-69.37-78.35-48.18,0-84.81,30.85-84.81,101.47v156.74h-57.78v-304.47Z"/><path class="cls-3" d="M7021.78,662.34c32.1-30.19,78.36-44.95,120.75-44.95,89.9,0,127.16,48.79,127.16,101.48v155.43c0,21.21,.63,39.18,2.56,55.24h-51.37c-1.27-15.43-1.91-30.82-1.91-46.25h-1.31c-25.65,39.18-60.36,53.94-106.62,53.94-56.5,0-105.32-32.12-105.32-91.2,0-78.38,75.14-105.34,167.65-105.34h42.39v-12.83c0-31.5-23.11-64.23-72.58-64.23-44.33,0-65.48,18.6-86.69,34.67l-34.69-35.97Zm163.14,120.77c-54.61,0-121.38,9.61-121.38,58.46,0,34.66,25.68,49.42,65.48,49.42,64.23,0,86.72-47.51,86.72-88.62v-19.27h-30.82Z"/></g><g class="cls-6"><path class="cls-3" d="M676.74,0c-17.32,82.96-18.72,247.94-35.66,336.58,112.48-51.79,181.34-94.03,296.68-136.6C866.82,104.74,798.79,18.02,676.74,0"/><path class="cls-3" d="M453.71,1097.96c-71.41-17.1-105-51.35-140.2-86.97-9.16-9.28,29.7-42.72,44.09-35.36,49.78,25.46,98.57,54.9,123.17,57.95,319.16,39.29,413.01-88.59,443.18-162.36-152.56-196.51-295.89-140.95-295.89-140.95-6.32,53.13-21.5,101.18-21.53,156.35,.37,5.61-157.24,24.06-161.95,17.5-29.3-27.26-63.47-64.63-89.88-93.95-80.44,69.79-168.38,108.03-261.03,163.68,20.45,87.97,119.67,272.52,178.54,307.39,338.47,200.75,686.01,154.89,678.55-317.21-92.64,181.74-398.86,157.26-497.04,133.93"/><path class="cls-3" d="M1070.95,454.97c-44.29,11.9-109.28-79.59-73.94-119.47,46.78-52.79,171.37,93.38,73.94,119.47m105.52-250.12c-20.84-15.65-409.93,162.92-538.43,199.21-11.99,84.71-17.99,174.19-19.81,258.05,110.77-26.44,222.8,15.83,335.52,126.25,18.73-48.97,18.73-146.86,16.51-202.52-.65-18.92,42.19-26.87,45.7-22.36,49.87,63.42,14.19,227.72-9.46,309.8,7.95,120.48,9.28,183.87-14.81,292.09,594.03-93.45,305.95-869.59,184.79-960.53"/><path class="cls-3" d="M327.02,746.45c-29.9-45.2-44.9-109.94-51.72-167.15-52.11-27.85-131.84-114.21-183.83-79.98C-25.03,575.97,.31,641.64,6.98,652.36c60.78,98.01,90.14,140,143.14,193.54,54.98-23.77,116.31-64.46,176.9-99.44"/></g><g class="cls-5"><path class="cls-3" d="M449.41,698.68c-62.87-26.95-66.7-164.23-12.66-146.83,82.32,26.49,101.55,185.05,12.66,146.83m-96.46-167.65c-69.91,99.19,121.64,310.36,121.64,310.36l71.77-6.58c-5.72-157.2,29.98-289.74-1.02-318.66-27.71-25.36-134.04-67.94-192.39,14.88"/><path class="cls-3" d="M560.56,478.06c-2.74-4.83,27.98-246.06,29.47-353.41-154.31-35.91-438.11,141.54-466.58,220.2,65.4,55.86,127.77,102.64,191.89,157.31,46.68-131.92,214.98-81.15,245.22-24.1"/></g></g></g></g></svg>