<svg xmlns="http://www.w3.org/2000/svg" width="112" height="112" viewBox="0 0 112 112" fill="none">
<path d="M111.67 55.9783C96.3564 55.7869 83.9969 43.3458 83.9969 28.0021C68.6579 28.0021 56.2075 15.6426 56.0442 0.329183C50.057 -0.573103 43.9578 0.383922 38.5982 3.14547L23.4948 10.8313C18.0466 13.6196 13.6157 18.0506 10.8274 23.4988L3.17193 38.5486C0.383655 44.0178 -0.600992 50.1964 0.355655 56.2676L3.0086 72.946C3.96571 78.9893 6.80952 84.5658 11.1308 88.8871L23.1145 100.878C27.4381 105.211 32.968 108.034 39.0112 108.991L55.7735 111.644C61.8167 112.601 67.9696 111.616 73.4108 108.855L88.5329 101.144C93.9741 98.3813 98.405 93.9527 101.165 88.5114L108.849 73.4453C111.6 68.0648 112.58 61.9282 111.67 55.9783ZM37.3312 81.9245C33.22 81.9245 29.8647 78.5716 29.8647 74.668C29.8647 70.7644 33.22 67.4114 37.3312 67.4114C41.4425 67.4114 44.7977 70.7644 44.7977 74.668C44.7977 78.5716 41.4378 81.9245 37.3312 81.9245ZM44.7977 44.8018C40.6865 44.8018 37.3312 41.4489 37.3312 37.5452C37.3312 33.6416 40.6865 30.2887 44.7977 30.2887C48.909 30.2887 52.2643 33.6416 52.2643 37.5452C52.2643 41.4489 48.9043 44.8018 44.7977 44.8018ZM82.1303 74.458C78.0191 74.458 74.6638 71.105 74.6638 67.2014C74.6638 63.2978 78.0191 59.9449 82.1303 59.9449C86.2416 59.9449 89.5968 63.2978 89.5968 67.2014C89.5968 71.105 86.2369 74.458 82.1303 74.458Z" fill="#ff0000"/>
</svg>